<?xml version="1.0" standalone="no"?>
<!DOCTYPE svg PUBLIC "-//W3C//DTD SVG 20010904//EN"
 "http://www.w3.org/TR/2001/REC-SVG-20010904/DTD/svg10.dtd">
<svg version="1.0" xmlns="http://www.w3.org/2000/svg"
 width="1792.000000pt" height="1792.000000pt" viewBox="0 0 1792.000000 1792.000000"
 preserveAspectRatio="xMidYMid meet">
<metadata>
Created by potrace 1.14, written by Peter Selinger 2001-2017
</metadata>
<g transform="translate(0.000000,1792.000000) scale(0.100000,-0.100000)"
fill="#000000" stroke="none">
<path d="M8557 13754 c-1 -1 -119 -5 -262 -9 -143 -3 -298 -8 -345 -10 -47 -3
-148 -7 -225 -10 -77 -2 -140 -5 -140 -6 0 0 -22 -2 -50 -4 -115 -6 -287 -19
-390 -30 -27 -2 -69 -6 -91 -9 -144 -14 -182 -18 -209 -21 -16 -2 -55 -7 -86
-10 -31 -3 -66 -7 -77 -10 -11 -2 -47 -6 -79 -10 -33 -3 -70 -8 -84 -10 -13
-2 -77 -11 -141 -20 -65 -9 -128 -18 -140 -20 -13 -3 -43 -7 -68 -11 -25 -3
-72 -10 -105 -16 -33 -5 -72 -12 -87 -14 -16 -2 -43 -6 -60 -9 -18 -3 -42 -7
-53 -9 -30 -5 -107 -18 -130 -22 -115 -22 -143 -27 -162 -29 -12 -2 -34 -6
-50 -9 -64 -14 -234 -48 -253 -51 -8 -1 -33 -6 -55 -11 -22 -4 -42 -9 -45 -9
-3 -1 -18 -4 -35 -8 -16 -4 -39 -9 -51 -11 -11 -2 -70 -16 -130 -31 -60 -14
-117 -28 -127 -30 -10 -2 -27 -7 -37 -10 -10 -3 -31 -8 -46 -10 -32 -5 -214
-54 -434 -116 -80 -23 -155 -43 -168 -44 -13 -2 -28 -8 -35 -13 -7 -6 -15 -11
-19 -11 -5 -1 -9 -1 -10 -2 -2 0 -10 -2 -19 -4 -30 -6 -283 -86 -399 -127 -63
-22 -119 -41 -125 -43 -5 -1 -17 -5 -25 -8 -160 -60 -237 -89 -245 -91 -5 -1
-26 -9 -46 -18 -20 -9 -47 -19 -60 -22 -13 -4 -37 -13 -54 -21 -63 -29 -103
-45 -110 -45 -3 0 -31 -11 -61 -25 -30 -14 -82 -37 -117 -51 -69 -29 -152 -67
-274 -125 -44 -21 -86 -39 -91 -39 -6 0 -12 -3 -14 -7 -1 -5 -57 -36 -123 -70
-196 -101 -210 -108 -215 -113 -3 -3 -30 -18 -60 -34 -90 -48 -94 -51 -110
-63 -8 -6 -22 -13 -30 -15 -8 -2 -17 -5 -20 -8 -3 -3 -48 -32 -100 -65 -52
-32 -135 -86 -183 -119 -48 -34 -95 -65 -104 -71 -10 -5 -28 -20 -42 -32 -14
-13 -29 -23 -33 -23 -5 0 -22 -13 -40 -30 -17 -16 -34 -30 -39 -30 -4 0 -14
-6 -21 -13 -7 -7 -49 -41 -93 -77 -44 -35 -96 -79 -115 -98 -19 -18 -47 -40
-62 -50 -16 -9 -28 -22 -28 -29 0 -7 -5 -13 -10 -13 -6 0 -24 -13 -40 -30 -16
-16 -32 -30 -35 -30 -7 0 -159 -153 -190 -191 -43 -51 -84 -119 -75 -124 4 -3
46 11 92 31 128 55 133 57 138 58 3 1 26 16 52 34 26 17 51 32 56 32 6 0 12 4
14 8 2 7 90 66 159 107 71 42 305 191 334 212 6 5 23 15 38 23 22 13 250 151
297 180 68 43 222 130 230 130 6 0 10 5 10 10 0 6 4 10 9 10 6 0 36 15 68 34
32 18 99 55 148 81 50 26 100 55 113 63 12 8 22 10 22 6 0 -5 4 -3 9 4 4 7 15
14 23 16 8 1 27 9 41 19 15 9 29 17 32 17 3 0 125 58 270 130 146 71 268 129
272 129 3 0 9 4 12 9 9 14 257 132 361 171 47 18 92 37 101 41 9 5 34 12 55
16 49 10 42 8 94 23 25 8 63 15 85 17 22 1 40 3 40 4 0 14 333 22 341 9 3 -5
9 -7 14 -4 10 6 147 -26 227 -53 32 -11 103 -34 158 -51 55 -18 109 -36 120
-40 11 -5 40 -15 65 -22 25 -7 50 -15 55 -18 6 -3 15 -6 20 -7 6 -1 62 -20
125 -42 63 -21 118 -40 122 -41 4 -1 13 -4 20 -6 19 -7 351 -116 363 -119 6
-2 17 -6 25 -9 25 -10 125 -37 130 -35 3 1 15 -4 28 -11 13 -7 31 -14 40 -16
9 -1 67 -17 127 -35 61 -18 117 -34 125 -36 18 -4 87 -22 115 -30 11 -3 26 -6
33 -6 6 -1 12 -4 12 -7 0 -3 10 -7 23 -8 12 -1 29 -4 37 -6 8 -2 29 -7 45 -11
17 -4 48 -12 70 -17 22 -5 49 -12 60 -14 11 -2 40 -9 65 -16 52 -12 45 -11
175 -38 55 -12 109 -24 120 -27 11 -2 36 -6 55 -9 19 -2 58 -8 85 -14 54 -11
90 -18 145 -27 19 -3 46 -7 60 -10 14 -3 38 -7 55 -9 16 -3 85 -13 155 -24
138 -22 188 -29 330 -46 19 -2 35 -4 35 -5 0 -1 16 -3 35 -5 109 -12 151 -16
205 -21 33 -2 76 -7 95 -10 19 -2 69 -7 110 -10 41 -3 93 -7 115 -9 22 -2 85
-6 140 -10 55 -3 125 -8 155 -10 311 -22 1085 -22 1375 0 28 2 88 7 135 10 99
6 172 12 255 19 33 3 89 8 125 11 36 3 81 7 100 10 61 8 164 18 197 19 18 1
33 3 33 6 0 3 12 5 28 6 31 1 100 10 227 29 50 7 108 16 130 19 40 5 254 42
310 53 17 3 41 7 55 9 14 1 25 3 25 4 0 1 7 3 15 5 48 10 77 16 95 19 45 8 92
18 130 27 22 5 51 12 65 15 14 3 88 21 165 41 77 19 147 36 155 38 8 2 15 4
15 5 0 2 15 5 55 14 13 3 55 15 93 27 37 11 73 22 80 23 7 1 73 22 147 46 74
24 137 45 140 45 3 1 14 5 25 9 59 23 75 28 82 29 4 0 45 15 90 33 45 17 84
29 87 26 4 -3 6 0 6 6 0 7 9 12 19 12 11 0 32 6 48 14 15 8 75 33 133 56 58
23 123 50 145 60 61 26 221 80 239 80 9 0 16 4 16 8 0 4 8 8 18 9 9 0 67 12
127 26 61 15 148 30 195 35 77 9 310 7 385 -2 130 -16 146 -19 275 -48 30 -7
60 -13 65 -13 6 -1 30 -8 55 -15 25 -7 48 -13 53 -12 4 1 7 -3 7 -9 0 -5 4 -8
9 -4 5 3 20 1 33 -4 13 -6 66 -25 118 -45 163 -59 510 -219 518 -238 2 -4 10
-8 17 -8 8 0 34 -11 57 -23 24 -13 79 -43 123 -67 146 -79 182 -99 294 -165
62 -36 116 -65 122 -65 5 0 9 -4 9 -10 0 -5 4 -10 9 -10 19 0 513 -316 519
-332 2 -4 9 -8 15 -8 10 0 29 -13 84 -60 7 -5 15 -10 19 -10 3 0 33 -20 65
-45 33 -25 61 -45 64 -45 5 0 37 -25 60 -47 8 -7 16 -13 19 -13 9 0 304 -226
321 -245 6 -6 17 -16 27 -21 26 -15 135 -112 223 -199 134 -134 245 -296 286
-418 30 -87 23 -200 -16 -277 -39 -78 -134 -167 -225 -211 -89 -43 -125 -57
-165 -63 -16 -2 -30 -5 -30 -6 0 -2 -16 -5 -70 -15 -51 -9 -345 -14 -345 -6 0
3 -21 6 -48 7 -26 1 -83 8 -127 17 -95 19 -120 24 -160 32 -16 3 -38 8 -47 11
-10 3 -30 7 -45 10 -16 3 -37 8 -48 11 -11 4 -23 8 -27 9 -5 1 -9 2 -10 3 -2
2 -13 4 -25 7 -78 14 -436 144 -583 212 -36 16 -92 42 -125 57 -33 15 -64 28
-70 29 -5 2 -26 9 -45 18 -19 8 -64 28 -100 43 -36 15 -78 33 -95 40 -42 19
-109 39 -117 37 -5 -1 -8 2 -8 8 0 5 -6 10 -14 10 -8 0 -27 5 -43 12 -15 6
-30 12 -33 12 -3 1 -41 14 -85 28 -75 25 -279 85 -317 94 -10 2 -26 6 -36 8
-9 2 -37 9 -62 16 -25 7 -52 13 -60 15 -8 2 -46 11 -85 20 -38 9 -81 19 -94
21 -12 3 -51 11 -85 19 -81 19 -115 26 -151 31 -16 2 -37 7 -47 10 -27 8 -112
25 -153 29 -16 2 -32 5 -35 6 -6 2 -12 3 -75 13 -27 5 -59 10 -70 12 -11 3
-36 7 -55 10 -19 2 -46 7 -60 9 -14 2 -45 7 -70 10 -43 6 -63 9 -127 20 -16 2
-48 7 -73 10 -25 3 -61 8 -80 11 -19 3 -53 7 -75 9 -22 1 -40 4 -40 5 0 2 -30
6 -115 14 -36 3 -83 8 -105 11 -22 4 -58 8 -80 10 -22 2 -62 6 -90 9 -51 6
-117 12 -235 21 -35 3 -89 8 -120 11 -57 5 -106 8 -280 19 -58 3 -130 8 -160
10 -30 2 -127 7 -215 10 -88 4 -200 8 -250 10 -113 5 -800 5 -955 0 -157 -4
-394 -14 -515 -20 -55 -3 -138 -8 -185 -10 -251 -12 -336 -18 -342 -22 -5 -2
-8 2 -8 9 0 8 -3 9 -8 3 -4 -6 -18 -11 -32 -12 -14 0 -72 -4 -130 -7 -144 -10
-250 -16 -345 -21 -44 -3 -114 -7 -155 -10 -71 -4 -129 -8 -360 -20 -52 -3
-131 -8 -175 -10 -44 -2 -80 -4 -80 -5 0 -1 -47 -3 -260 -14 -49 -3 -119 -7
-155 -10 -36 -3 -103 -8 -150 -11 -47 -2 -125 -7 -175 -10 -49 -3 -121 -7
-160 -10 -38 -2 -117 -7 -175 -11 -58 -4 -131 -8 -162 -8 -32 -1 -58 -3 -58
-6 0 -4 -10 -6 -22 -7 -52 -2 -181 -16 -263 -29 -16 -2 -52 -7 -80 -9 -27 -3
-61 -7 -75 -11 -14 -3 -38 -7 -55 -9 -16 -2 -43 -6 -60 -9 -16 -3 -48 -8 -70
-12 -133 -21 -212 -73 -270 -179 -29 -54 -40 -149 -22 -195 20 -52 32 -76 51
-104 11 -16 20 -39 21 -51 2 -61 206 -189 575 -363 122 -57 184 -86 190 -87 3
-1 23 -9 45 -19 22 -10 62 -27 89 -37 27 -11 68 -28 90 -38 23 -9 61 -25 86
-35 25 -10 56 -23 70 -29 14 -6 30 -12 35 -13 6 -2 49 -17 97 -33 110 -39 288
-85 373 -96 17 -2 41 -6 55 -9 80 -18 158 -25 340 -31 362 -12 464 -17 575
-30 28 -4 70 -8 95 -11 50 -5 232 -31 269 -38 12 -3 42 -8 65 -10 39 -5 72
-11 124 -21 12 -3 34 -7 50 -10 15 -3 38 -8 50 -11 13 -2 43 -7 65 -11 23 -3
49 -9 58 -14 9 -4 18 -6 21 -4 2 3 20 0 39 -6 19 -5 50 -12 69 -15 19 -2 43
-7 52 -10 9 -3 27 -7 40 -9 13 -3 64 -14 113 -25 50 -11 99 -22 110 -23 11 -2
27 -7 35 -10 8 -3 29 -8 45 -11 39 -6 37 -6 350 -76 149 -33 279 -62 290 -65
11 -2 37 -9 58 -14 20 -5 37 -7 37 -4 0 3 7 0 15 -7 8 -7 15 -10 15 -7 0 3 26
-1 58 -8 33 -8 70 -16 83 -19 13 -3 62 -14 109 -24 189 -44 266 -61 295 -66
17 -3 41 -8 55 -12 14 -3 36 -8 50 -11 14 -2 32 -7 40 -10 8 -4 22 -7 30 -8
18 -1 199 -44 220 -52 8 -3 22 -7 30 -9 8 -1 31 -7 50 -13 113 -33 256 -73
265 -75 6 -1 15 -4 20 -8 6 -3 26 -9 45 -14 19 -4 40 -9 45 -10 6 -1 82 -28
170 -58 88 -31 167 -58 175 -61 8 -2 16 -4 18 -5 1 -2 5 -3 10 -5 11 -3 32
-11 237 -92 105 -41 280 -119 390 -174 214 -106 218 -108 400 -219 66 -40 136
-82 155 -93 19 -12 37 -24 40 -27 3 -3 48 -34 100 -70 52 -35 97 -68 98 -72 2
-4 8 -8 13 -8 6 0 15 -5 22 -11 7 -5 57 -44 112 -85 118 -88 139 -104 269
-209 290 -234 406 -304 606 -367 67 -21 112 -30 168 -32 17 0 32 -3 32 -6 0
-3 26 -6 58 -8 100 -6 167 -11 172 -13 3 -1 10 0 15 1 6 1 66 4 135 6 171 5
236 11 400 39 98 17 222 49 345 89 46 15 133 66 139 83 5 13 -23 13 -90 -1
-12 -2 -45 -7 -75 -11 -30 -3 -61 -8 -69 -10 -48 -13 -500 -25 -595 -16 -184
18 -455 96 -622 180 -21 10 -65 31 -98 47 -33 15 -85 43 -115 60 -30 18 -58
33 -62 33 -9 2 -108 66 -125 81 -7 5 -17 10 -23 10 -5 0 -10 5 -10 10 0 6 -5
10 -10 10 -11 0 -60 33 -94 63 -11 9 -23 17 -26 17 -4 0 -18 10 -32 23 -14 12
-35 29 -48 37 -12 8 -28 20 -34 25 -6 6 -36 30 -66 55 -30 25 -57 47 -60 50
-3 3 -43 38 -90 79 -47 41 -89 80 -95 86 -13 14 -185 154 -250 203 -16 12 -39
29 -50 38 -42 33 -212 151 -265 184 -30 19 -57 37 -60 40 -3 4 -12 10 -20 13
-8 4 -33 19 -55 32 -22 14 -48 28 -57 32 -10 3 -18 9 -18 14 0 5 -5 9 -11 9
-6 0 -23 8 -37 18 -31 22 -153 89 -267 146 -44 23 -81 44 -83 49 -2 4 -8 7
-14 7 -6 0 -47 18 -92 39 -238 115 -517 233 -771 326 -55 20 -109 40 -120 45
-11 4 -81 32 -155 60 -74 29 -153 62 -175 73 -22 11 -42 20 -45 20 -17 -1
-379 175 -477 233 -144 85 -213 129 -213 136 0 4 -6 8 -14 8 -7 0 -42 31 -77
69 -83 90 -89 98 -82 105 4 3 2 6 -3 6 -6 0 -16 16 -23 35 -56 155 39 284 221
300 114 11 183 13 192 7 5 -3 28 -6 50 -8 56 -3 123 -15 216 -40 8 -2 51 -12
95 -23 44 -10 87 -21 95 -25 8 -3 26 -8 40 -10 14 -3 59 -15 100 -26 41 -12
83 -23 93 -25 10 -2 62 -18 115 -34 84 -26 145 -43 162 -46 7 -1 82 -25 100
-32 8 -3 24 -8 35 -10 11 -2 27 -6 35 -10 19 -8 19 -8 55 -18 17 -4 83 -25
149 -46 65 -22 129 -41 141 -43 13 -2 33 -10 45 -16 12 -6 24 -9 27 -6 4 3 11
2 17 -3 6 -5 65 -25 131 -46 66 -20 143 -45 170 -55 95 -34 115 13 35 82 -49
42 -182 118 -207 118 -7 0 -13 3 -13 8 0 8 -49 32 -67 32 -7 0 -13 5 -13 10 0
6 -7 10 -15 10 -8 0 -29 8 -47 18 -18 10 -51 26 -73 34 -22 9 -62 27 -90 39
-27 13 -54 24 -60 25 -5 1 -32 12 -60 24 -79 34 -84 36 -195 79 -58 22 -163
60 -235 84 -71 25 -137 47 -145 50 -26 10 -149 49 -168 52 -9 2 -18 4 -19 5
-2 2 -6 3 -10 4 -5 2 -28 8 -53 16 -25 7 -52 14 -60 16 -8 1 -26 5 -40 8 -64
15 -77 17 -105 22 -16 2 -46 7 -65 11 -76 13 -306 19 -357 9 -16 -3 -50 -8
-78 -11 -85 -10 -221 -53 -286 -91 -158 -93 -243 -247 -214 -389 20 -101 142
-244 320 -376 33 -24 62 -46 65 -49 18 -20 355 -227 450 -277 63 -33 133 -71
155 -83 22 -13 60 -34 85 -48 96 -53 155 -97 158 -118 5 -37 -47 -40 -168 -10
-36 9 -74 18 -85 20 -11 2 -51 11 -90 20 -38 8 -81 18 -95 20 -41 7 -292 72
-371 96 -74 22 -109 35 -141 51 -10 5 -27 9 -38 9 -11 0 -20 5 -20 12 0 6 -3
9 -6 6 -3 -4 -45 12 -92 34 -48 22 -107 49 -132 60 -25 12 -51 21 -57 21 -7 0
-13 4 -13 9 0 4 -3 7 -7 6 -5 -1 -44 10 -88 24 -70 23 -228 64 -320 82 -16 4
-41 9 -55 12 -28 6 -49 10 -99 19 -18 4 -97 22 -175 41 -77 20 -152 37 -166
39 -14 2 -36 7 -50 10 -29 6 -178 17 -200 15 -8 -1 -204 -2 -435 -2 -401 -1
-507 2 -585 17 -19 4 -46 9 -60 11 -14 2 -41 6 -60 9 -19 3 -44 8 -55 12 -11
3 -33 7 -50 9 -35 3 -80 11 -80 14 0 1 -11 3 -25 5 -60 7 -371 107 -397 128
-7 5 -13 6 -13 2 0 -4 -6 -3 -12 2 -10 8 -96 41 -128 48 -32 8 -202 87 -233
108 -18 12 -100 51 -182 86 -256 110 -278 132 -266 273 3 35 57 82 141 121 47
21 94 41 105 43 34 7 223 22 350 29 28 2 50 4 50 5 0 1 29 3 65 5 36 2 65 4
65 5 0 1 25 3 55 5 30 1 55 3 55 4 0 1 38 4 85 7 88 5 141 9 245 18 33 3 102
8 153 11 51 3 107 8 125 10 17 2 77 7 132 9 55 3 138 8 185 11 393 25 387 25
690 41 207 10 535 24 701 28 75 2 142 7 148 10 6 4 11 3 11 -3 0 -5 10 -7 23
-4 26 7 1268 11 1281 5 5 -3 74 -6 155 -8 140 -3 190 -5 491 -20 220 -11 245
-12 245 -14 0 -1 29 -3 65 -5 156 -8 476 -32 655 -50 17 -2 59 -6 95 -9 36 -4
83 -9 105 -12 22 -4 61 -7 87 -8 27 0 48 -3 48 -6 0 -3 12 -5 28 -6 32 -1 135
-12 177 -20 17 -2 48 -6 70 -9 22 -2 40 -4 40 -5 0 -1 16 -3 35 -5 19 -1 51
-5 70 -9 19 -3 51 -8 70 -10 54 -7 113 -16 135 -21 11 -2 47 -7 80 -11 33 -3
63 -8 66 -10 4 -2 24 -6 45 -9 22 -4 46 -8 55 -11 9 -2 34 -7 55 -10 22 -2 46
-6 54 -9 8 -2 31 -7 50 -10 19 -3 49 -8 65 -12 17 -3 37 -7 45 -8 20 -2 119
-23 200 -42 36 -8 76 -17 90 -19 14 -3 39 -9 55 -14 17 -5 41 -12 55 -14 170
-34 472 -136 890 -301 80 -31 204 -79 275 -107 72 -27 141 -56 155 -63 14 -7
30 -14 35 -15 6 -1 21 -7 35 -12 109 -42 420 -146 453 -152 12 -3 22 -5 22 -6
0 -1 7 -3 15 -5 8 -2 35 -8 60 -15 69 -17 119 -28 185 -40 33 -5 71 -12 85
-14 104 -19 345 -26 430 -13 25 4 60 9 78 11 119 18 262 74 352 140 264 193
354 444 257 721 -11 33 -25 66 -30 73 -5 6 -7 12 -3 12 3 0 -5 18 -19 40 -14
22 -25 42 -25 46 0 10 -123 183 -176 249 -58 70 -268 283 -337 340 -27 22 -56
47 -65 56 -10 9 -78 64 -152 123 -172 136 -174 138 -240 186 -30 22 -64 48
-75 56 -11 9 -65 47 -120 84 -55 38 -104 73 -110 77 -5 5 -32 23 -60 40 -27
17 -99 62 -160 100 -120 76 -411 242 -462 264 -18 8 -33 17 -33 21 0 5 -4 8
-9 8 -4 0 -91 40 -192 88 -208 101 -248 119 -339 157 -36 15 -81 34 -100 42
-19 8 -44 18 -55 23 -11 4 -31 12 -45 18 -103 46 -140 60 -140 55 0 -3 -6 -1
-12 4 -7 5 -40 20 -73 32 -33 13 -69 27 -80 31 -52 22 -332 122 -435 155 -63
20 -124 41 -135 45 -32 14 -229 73 -242 73 -7 0 -13 4 -13 9 0 4 -3 7 -7 6
-10 -2 -43 7 -168 44 -144 43 -598 159 -795 204 -14 3 -41 9 -60 14 -51 11
-170 37 -305 65 -44 9 -89 19 -100 21 -18 4 -126 25 -195 39 -14 2 -36 7 -50
10 -36 7 -90 17 -170 30 -30 5 -99 16 -120 19 -8 1 -19 4 -25 7 -5 3 -22 5
-37 4 -16 -1 -28 1 -28 4 0 3 -12 7 -27 7 -25 1 -64 6 -153 19 -40 6 -102 14
-145 19 -22 3 -56 7 -75 10 -36 5 -106 14 -175 21 -22 2 -62 7 -90 11 -65 8
-123 14 -295 30 -25 2 -70 7 -100 10 -30 3 -73 7 -95 9 -22 1 -74 6 -115 9
-242 21 -313 25 -605 41 -265 13 -422 17 -918 19 -284 1 -518 1 -520 0z m222
-290 c12 -15 18 -30 15 -35 -3 -5 0 -9 6 -9 6 0 8 -5 5 -11 -10 -16 -12 -79
-2 -79 4 0 5 -5 1 -11 -9 -15 -11 -119 -2 -119 4 0 3 -11 -2 -25 -6 -15 -6
-26 1 -30 6 -4 6 -13 0 -23 -6 -10 -6 -23 0 -34 7 -12 6 -18 -1 -18 -6 0 -8
-5 -5 -10 8 -13 10 -154 2 -167 -2 -4 -1 -17 3 -28 4 -11 4 -29 0 -40 -4 -11
-4 -29 0 -40 4 -11 4 -30 -1 -42 -5 -15 -5 -23 2 -23 6 0 6 -7 -1 -20 -8 -14
-8 -20 0 -20 6 0 8 -5 4 -11 -10 -17 -11 -60 -2 -86 5 -14 3 -23 -3 -23 -6 0
-7 -5 -3 -11 4 -6 8 -66 10 -133 2 -66 5 -141 8 -166 2 -25 7 -75 11 -112 4
-36 4 -76 0 -87 -6 -21 -62 -57 -72 -47 -3 3 -14 1 -24 -5 -11 -5 -19 -6 -19
-2 0 4 -35 9 -78 9 -126 2 -407 20 -602 39 -25 2 -81 7 -125 10 -44 4 -93 8
-110 11 -27 4 -69 8 -175 19 -19 1 -53 6 -75 9 -22 3 -62 8 -90 11 -27 4 -63
8 -80 10 -16 1 -46 6 -65 9 -19 3 -57 8 -85 11 -27 3 -63 7 -80 10 -16 3 -47
7 -67 10 -21 3 -53 7 -70 10 -18 3 -49 7 -68 9 -34 4 -75 10 -135 22 -44 8
-75 12 -122 18 -23 3 -72 12 -110 21 -37 9 -95 23 -128 30 -33 8 -85 21 -115
30 -78 23 -93 26 -107 27 -7 1 -13 5 -13 10 0 5 -5 6 -10 3 -6 -4 -16 -3 -23
2 -7 5 -30 15 -52 22 -39 12 -85 32 -174 75 -23 12 -62 37 -85 57 -38 34 -41
40 -41 87 0 46 4 55 38 90 21 22 51 46 65 53 15 8 29 16 32 19 3 3 16 11 30
19 110 63 140 79 140 75 0 -2 19 5 42 17 43 22 215 89 298 115 25 8 54 19 65
24 78 33 158 59 166 55 5 -4 9 -2 9 4 0 9 21 19 54 26 6 1 25 7 41 14 55 21
129 49 205 76 82 29 163 59 195 71 28 10 26 10 68 18 20 5 37 11 37 15 0 4 6
8 13 8 6 0 50 11 97 26 84 26 192 55 240 64 42 8 55 11 55 13 0 1 11 3 25 4
14 2 39 6 55 10 46 10 130 25 172 31 13 2 42 6 65 10 24 4 54 8 68 10 14 3 50
7 80 10 30 3 66 7 80 10 14 3 65 7 114 10 49 2 90 6 92 7 1 2 68 4 148 5 l145
3 20 -26z m831 12 c19 -2 64 -7 100 -11 66 -6 78 -8 165 -20 28 -4 61 -9 75
-10 14 -2 25 -4 25 -5 0 -1 14 -4 30 -6 17 -3 75 -14 130 -26 55 -11 108 -20
118 -20 9 0 17 -4 17 -9 0 -6 4 -8 8 -5 9 6 179 -37 322 -80 46 -14 91 -28
100 -30 24 -5 227 -78 330 -118 52 -21 100 -38 105 -39 6 -1 12 -5 15 -9 3 -4
15 -9 25 -11 11 -2 27 -7 35 -10 14 -6 196 -72 405 -148 153 -55 358 -149 411
-190 59 -43 118 -113 127 -147 6 -25 -10 -80 -27 -97 -56 -53 -201 -134 -245
-138 -12 -1 -21 -4 -21 -7 0 -4 -6 -7 -12 -7 -7 0 -96 -22 -198 -48 -102 -26
-196 -49 -210 -52 -34 -7 -39 -8 -87 -22 -23 -6 -45 -11 -50 -9 -4 1 -26 -4
-48 -10 -22 -6 -58 -14 -80 -17 -35 -5 -87 -14 -120 -20 -16 -4 -116 -15 -180
-20 -62 -6 -114 -11 -187 -20 -24 -3 -63 -7 -89 -9 -25 -3 -61 -7 -80 -10 -18
-4 -56 -8 -84 -11 -27 -2 -70 -7 -95 -10 -25 -3 -65 -7 -90 -9 -25 -2 -45 -5
-45 -5 0 -1 -25 -4 -55 -6 -30 -3 -78 -6 -107 -9 -28 -2 -56 -7 -62 -10 -6 -4
-11 -2 -11 4 0 6 -4 9 -9 6 -5 -4 -51 -8 -103 -11 -388 -19 -453 -22 -453 -25
0 0 -28 -3 -61 -5 -34 -2 -65 -5 -70 -6 -29 -5 -58 4 -77 24 l-22 22 0 704 1
703 24 20 c24 19 35 20 200 14 96 -3 191 -8 210 -10z m1780 -70 c90 -6 150
-11 215 -21 22 -3 54 -7 70 -9 17 -2 30 -5 30 -6 0 -2 15 -5 75 -14 19 -3 92
-17 161 -30 69 -14 148 -28 175 -32 27 -3 52 -8 56 -10 3 -2 41 -11 85 -19 43
-8 87 -17 98 -20 71 -16 212 -48 225 -50 8 -1 22 -5 30 -8 8 -2 65 -18 125
-33 145 -37 137 -35 158 -37 9 -1 17 -5 17 -9 0 -4 3 -7 8 -6 4 1 18 -2 32 -6
196 -60 251 -77 287 -86 85 -21 111 -69 68 -125 -25 -33 -98 -80 -142 -91 -13
-4 -23 -10 -23 -15 0 -5 -3 -8 -7 -7 -5 1 -46 -11 -93 -26 -47 -15 -98 -30
-115 -33 -16 -2 -44 -8 -61 -12 -48 -13 -247 -10 -305 4 -88 22 -152 42 -194
60 -49 21 -88 38 -95 40 -9 3 -96 42 -140 64 -24 11 -49 21 -56 21 -7 0 -14 3
-16 8 -1 4 -77 44 -168 90 -91 46 -172 87 -180 92 -8 6 -73 42 -145 81 -164
90 -241 133 -370 205 l-70 39 45 5 c45 5 63 5 220 -4z m-4560 -5 c0 -5 -13
-15 -30 -23 -16 -7 -30 -15 -30 -19 0 -3 -21 -16 -46 -30 -25 -13 -53 -29 -62
-34 -34 -22 -402 -205 -406 -203 -2 2 -12 -4 -22 -13 -11 -9 -37 -25 -59 -36
-22 -11 -57 -30 -77 -42 -21 -11 -55 -31 -75 -42 -54 -31 -274 -141 -287 -144
-6 -1 -18 -5 -26 -8 -38 -16 -132 -48 -200 -68 -61 -18 -100 -23 -210 -23
-190 -1 -302 18 -427 75 -24 10 -47 19 -51 19 -21 0 -133 82 -144 104 -9 20
-8 30 6 51 9 14 21 23 26 20 6 -4 10 -2 10 3 0 6 17 13 37 17 21 4 42 10 48
13 5 4 15 7 20 8 15 3 128 35 145 41 8 3 20 7 25 9 6 1 44 12 85 24 41 12 82
23 90 26 8 2 67 17 130 34 63 17 124 32 135 35 11 2 21 4 23 4 1 1 5 2 10 2 4
1 18 5 31 10 22 9 75 20 111 23 9 1 20 5 25 8 6 3 28 9 50 13 22 5 45 9 50 11
6 1 26 5 45 8 19 4 42 9 50 11 8 2 26 6 40 9 14 2 52 9 85 15 208 38 238 43
282 45 18 0 33 4 33 7 0 4 10 5 23 5 12 -1 26 0 31 3 6 2 26 5 45 6 20 1 59 5
86 9 28 4 74 8 103 10 29 2 55 6 57 8 8 8 215 7 215 -1z"/>
<path d="M2327 10824 c-2 -2 -30 -6 -63 -9 -32 -3 -77 -8 -99 -11 -22 -3 -51
-7 -65 -9 -43 -4 -190 -35 -315 -67 -66 -16 -128 -31 -138 -33 -39 -8 -63 -18
-105 -42 -34 -20 -41 -27 -32 -38 9 -10 32 -13 91 -10 43 2 83 6 87 9 12 7 67
17 122 21 25 2 45 4 45 5 0 13 426 19 510 7 102 -15 121 -18 166 -28 26 -6 53
-12 60 -13 57 -11 202 -58 264 -86 22 -10 74 -32 115 -50 108 -47 262 -129
352 -187 64 -41 72 -46 108 -67 18 -10 43 -27 54 -38 12 -10 43 -33 71 -51 27
-17 55 -36 61 -42 6 -5 25 -21 43 -35 18 -14 42 -33 54 -43 12 -10 37 -31 56
-45 19 -15 44 -36 57 -47 12 -11 33 -29 45 -40 13 -11 56 -47 94 -80 88 -75
134 -112 210 -169 33 -25 67 -51 75 -59 29 -26 249 -177 259 -177 5 0 11 -4
13 -9 4 -11 162 -110 338 -211 239 -137 633 -324 845 -400 33 -12 76 -29 95
-38 19 -9 37 -17 40 -17 12 -2 57 -18 85 -30 39 -17 249 -99 255 -101 10 -2
263 -108 342 -144 26 -11 50 -21 53 -21 2 0 89 -42 192 -94 151 -75 355 -195
383 -225 3 -3 35 -29 71 -58 84 -65 145 -134 171 -191 31 -68 17 -160 -34
-221 -18 -22 -84 -71 -100 -74 -7 -2 -20 -6 -29 -10 -19 -8 -107 -10 -161 -3
-21 3 -59 8 -85 12 -27 3 -59 8 -73 10 -14 2 -45 7 -70 9 -42 5 -224 45 -315
70 -59 16 -142 38 -155 40 -8 2 -22 6 -30 8 -18 7 -101 31 -115 34 -18 3 -300
85 -315 91 -17 7 -27 10 -55 17 -11 3 -51 15 -90 26 -38 12 -83 25 -100 30
-16 4 -79 22 -140 40 -125 36 -120 34 -160 44 -35 9 -111 34 -140 46 -24 11
-149 48 -179 54 -11 2 -32 7 -46 10 -44 11 -130 14 -130 5 0 -15 23 -52 45
-71 21 -20 74 -46 255 -128 63 -29 131 -60 150 -69 19 -9 37 -16 40 -16 3 -1
28 -11 55 -24 112 -51 441 -179 595 -231 36 -12 74 -26 85 -30 21 -9 213 -72
230 -76 6 -2 48 -14 95 -27 89 -26 161 -43 220 -51 19 -3 46 -8 60 -11 82 -17
298 -23 432 -12 138 12 217 39 335 113 64 40 100 76 134 129 49 78 62 123 62
222 0 62 -5 82 -33 140 -43 87 -132 175 -276 274 -185 128 -261 170 -709 394
-283 141 -341 174 -343 193 -3 21 19 54 35 51 4 -1 10 -1 13 1 17 6 60 8 60 2
0 -4 10 -8 23 -8 12 -1 42 -5 67 -9 25 -4 54 -8 65 -10 42 -7 308 -66 315 -70
4 -2 20 -6 36 -9 41 -8 264 -78 364 -116 47 -18 90 -33 95 -35 12 -3 72 -28
132 -56 24 -10 45 -19 47 -19 2 0 42 -17 88 -39 141 -65 176 -79 182 -73 3 3
6 1 6 -4 0 -5 10 -10 21 -11 12 -1 45 -9 73 -18 28 -8 62 -17 76 -19 14 -3 25
-5 25 -6 0 -1 9 -3 20 -4 11 -2 45 -6 75 -10 100 -12 257 -22 500 -31 140 -6
305 -14 305 -15 0 0 34 -3 75 -5 41 -3 95 -7 120 -10 25 -2 70 -7 100 -10 30
-3 66 -8 80 -11 14 -3 39 -7 55 -9 27 -4 103 -17 115 -20 14 -3 118 -26 140
-30 66 -13 87 -17 115 -21 17 -2 41 -5 55 -8 29 -6 94 -16 130 -21 14 -2 41
-7 60 -10 19 -3 51 -8 70 -10 19 -2 45 -7 58 -10 52 -12 69 -15 102 -20 19 -2
91 -20 160 -40 69 -19 134 -37 145 -40 52 -12 307 -106 430 -160 17 -7 59 -25
95 -40 36 -15 97 -41 135 -57 91 -40 119 -52 180 -78 124 -53 218 -129 229
-186 2 -10 5 -23 7 -29 1 -5 -1 -19 -5 -30 -31 -86 -77 -123 -207 -168 -111
-39 -156 -43 -494 -46 -170 -1 -350 -4 -400 -6 -107 -5 -316 -14 -435 -20 -47
-2 -146 -6 -220 -10 -74 -3 -178 -7 -230 -10 -237 -11 -496 -21 -785 -30 -88
-3 -225 -7 -305 -10 -213 -7 -581 -16 -855 -20 -132 -3 -325 -7 -430 -11 -225
-7 -945 -7 -1130 0 -148 6 -151 6 -167 5 -48 -2 -424 19 -633 36 -22 2 -74 6
-115 10 -94 7 -151 12 -215 20 -108 12 -132 15 -190 20 -60 6 -97 11 -145 20
-24 4 -87 14 -140 21 -84 11 -108 15 -130 20 -14 3 -38 7 -55 9 -16 2 -43 6
-60 9 -16 3 -73 12 -125 21 -127 21 -123 21 -220 40 -47 9 -96 18 -110 21 -14
2 -45 9 -70 14 -25 6 -56 12 -70 14 -14 3 -25 5 -25 6 0 1 -9 3 -20 5 -118 23
-508 138 -532 158 -7 5 -13 7 -13 4 0 -6 -91 24 -145 48 -16 7 -43 17 -60 23
-16 6 -39 13 -50 18 -11 4 -24 8 -30 10 -14 4 -578 230 -618 248 -17 8 -41 16
-52 19 -18 5 -145 49 -185 64 -8 4 -18 7 -22 8 -5 2 -10 4 -13 5 -5 3 -6 3
-50 15 -16 4 -34 10 -40 14 -5 3 -14 7 -20 8 -5 1 -41 12 -80 24 -75 23 -274
75 -315 83 -14 3 -37 7 -52 10 -58 12 -84 17 -123 22 -22 3 -56 7 -75 10 -195
27 -374 23 -500 -11 -52 -14 -101 -26 -107 -27 -7 -1 -13 -6 -13 -11 0 -6 -3
-8 -6 -5 -18 18 -191 -90 -273 -169 -53 -52 -141 -173 -141 -194 0 -4 -5 -20
-12 -36 -24 -60 -31 -99 -31 -183 0 -100 7 -141 41 -240 3 -8 4 -18 4 -22 -1
-5 3 -8 8 -8 5 0 9 -3 8 -7 -2 -12 13 -45 36 -78 12 -16 20 -31 18 -33 -4 -4
66 -110 100 -152 16 -19 32 -39 36 -45 4 -5 30 -37 57 -70 124 -148 341 -360
505 -495 30 -25 56 -48 58 -52 2 -5 8 -8 13 -8 5 0 17 -8 27 -17 29 -28 64
-56 105 -83 20 -14 37 -28 37 -32 0 -5 4 -8 9 -8 6 0 38 -21 73 -47 112 -85
196 -141 412 -277 158 -100 201 -126 316 -189 30 -16 60 -33 65 -38 12 -9 452
-229 459 -229 2 0 46 -19 98 -43 51 -24 125 -56 163 -72 39 -16 74 -32 79 -37
6 -4 16 -8 23 -8 7 0 32 -8 56 -19 23 -10 67 -28 97 -40 30 -12 64 -26 75 -31
11 -4 29 -11 40 -16 97 -35 152 -55 160 -57 14 -4 106 -37 130 -47 22 -10 174
-61 190 -65 6 -1 17 -5 25 -8 8 -3 56 -18 105 -33 50 -15 99 -30 110 -35 11
-4 67 -22 125 -39 58 -16 119 -34 135 -40 17 -5 80 -22 140 -39 61 -17 124
-35 140 -40 30 -10 146 -40 175 -46 8 -2 15 -4 15 -5 0 -1 11 -4 25 -7 33 -6
42 -9 60 -16 8 -4 26 -9 40 -11 14 -3 45 -10 70 -17 25 -6 53 -13 63 -15 9 -2
26 -6 37 -9 11 -3 28 -7 38 -9 9 -2 78 -18 152 -36 74 -18 146 -34 160 -36 14
-3 42 -9 63 -15 21 -6 50 -12 65 -14 15 -2 61 -11 102 -20 95 -21 89 -20 190
-39 47 -9 96 -18 110 -21 23 -5 71 -13 112 -21 9 -1 38 -6 65 -10 26 -3 57 -9
68 -11 11 -2 34 -6 50 -8 17 -2 44 -6 60 -10 34 -7 76 -14 120 -19 17 -2 30
-5 30 -5 0 -1 18 -4 40 -6 21 -3 53 -6 70 -9 16 -2 53 -8 80 -12 28 -3 56 -11
63 -16 8 -7 12 -7 12 1 0 7 4 10 8 7 4 -2 46 -10 92 -16 47 -6 96 -13 110 -15
46 -7 206 -25 265 -30 22 -2 40 -5 40 -5 0 -1 23 -3 50 -6 28 -2 70 -6 95 -9
25 -3 69 -7 98 -10 29 -2 83 -7 120 -10 142 -13 365 -26 662 -40 391 -18 1145
-23 1615 -11 360 10 381 11 750 32 50 3 126 7 170 9 44 2 80 4 80 5 0 1 48 5
195 14 47 3 110 8 140 12 30 3 80 7 110 9 30 2 55 4 55 5 0 0 23 3 50 5 49 4
129 12 190 20 17 2 55 7 85 10 30 3 71 8 90 10 19 3 55 7 80 10 78 9 114 14
155 21 22 4 51 8 65 9 27 3 96 13 145 21 17 3 46 7 65 10 19 2 60 9 90 15 30
7 66 13 80 14 14 1 41 5 60 8 19 4 49 9 65 12 26 4 116 20 230 40 17 3 37 8
45 10 8 3 33 7 55 10 22 4 49 8 60 11 86 18 111 22 117 18 5 -3 8 -1 8 3 0 5
10 10 23 10 20 1 55 8 67 14 3 1 10 3 15 4 12 1 73 14 100 19 11 3 35 9 53 15
17 5 32 7 32 4 0 -3 7 0 15 7 8 7 15 10 15 7 0 -3 39 6 88 19 48 14 96 27 107
29 57 13 85 20 105 27 43 17 84 28 88 23 3 -2 13 0 24 6 11 6 29 12 41 15 12
2 83 22 157 45 74 22 151 45 170 50 84 24 477 158 560 192 14 6 30 11 35 12 6
2 57 22 115 45 58 23 110 43 115 45 6 1 24 7 40 14 17 7 59 24 95 38 70 27
131 54 196 84 22 10 44 19 49 19 21 0 547 268 650 332 17 10 38 21 48 24 9 4
17 10 17 14 0 4 12 12 28 19 31 14 367 237 395 262 10 9 33 25 52 35 19 10 35
22 35 26 0 5 5 8 11 8 6 0 17 6 24 13 30 26 44 37 50 37 3 0 49 33 103 73 l97
72 -40 5 c-40 5 -95 -13 -95 -31 0 -5 -6 -9 -14 -9 -8 0 -52 -22 -98 -50 -46
-27 -90 -50 -100 -50 -9 0 -18 -5 -20 -10 -2 -6 -12 -12 -23 -14 -11 -2 -68
-25 -127 -50 -59 -25 -115 -46 -123 -46 -8 0 -15 -4 -15 -10 0 -5 -3 -9 -7 -8
-5 1 -21 -4 -37 -11 -15 -6 -63 -25 -105 -43 -42 -17 -80 -34 -86 -38 -12 -9
-67 -24 -77 -22 -5 1 -8 -2 -8 -7 0 -5 -10 -12 -22 -16 -13 -4 -25 -8 -28 -9
-3 -2 -18 -8 -35 -15 -16 -7 -48 -20 -70 -30 -22 -10 -56 -25 -75 -34 -19 -8
-75 -34 -123 -56 -49 -23 -92 -41 -98 -41 -5 0 -9 -4 -9 -10 0 -5 -6 -10 -13
-10 -6 0 -46 -16 -87 -36 -41 -20 -109 -52 -150 -71 -41 -20 -91 -44 -110 -53
-82 -42 -342 -150 -430 -178 -137 -45 -264 -75 -322 -76 -16 -1 -28 -4 -28 -7
0 -3 -48 -4 -107 -2 -128 4 -160 7 -168 15 -4 4 -13 4 -20 2 -30 -12 -348 86
-430 133 -16 9 -31 16 -33 15 -1 -2 -24 7 -50 19 -26 12 -49 23 -52 24 -3 0
-31 14 -64 30 -94 47 -131 92 -128 155 5 78 139 286 309 478 45 51 41 102 -8
102 -42 0 -134 -54 -202 -119 -40 -38 -83 -79 -97 -90 -14 -11 -30 -25 -37
-31 -7 -5 -17 -10 -23 -10 -5 0 -10 -4 -10 -8 0 -4 -12 -13 -27 -19 -148 -64
-271 -98 -375 -105 -21 -1 -38 -5 -38 -8 0 -13 -328 -2 -470 15 -14 2 -47 6
-75 10 -27 3 -61 8 -75 11 -14 3 -38 7 -55 10 -16 2 -41 7 -55 11 -14 3 -32 7
-40 9 -14 3 -70 14 -96 19 -8 2 -205 49 -304 72 -14 3 -31 7 -39 9 -7 1 -34 7
-60 13 -25 6 -59 13 -76 16 -16 3 -41 7 -55 10 -14 3 -41 8 -60 11 -19 3 -51
9 -70 13 -19 5 -57 12 -83 16 -27 3 -58 8 -70 11 -12 2 -37 6 -57 9 -20 3 -47
8 -60 10 -25 5 -72 12 -145 20 -22 3 -51 7 -65 10 -14 3 -44 8 -67 10 -54 6
-107 13 -158 19 -41 6 -116 14 -195 21 -116 11 -168 16 -210 20 -40 4 -88 8
-270 20 -185 13 -451 20 -780 20 -439 0 -691 -10 -1035 -40 -27 -2 -79 -7
-115 -10 -76 -6 -164 -15 -200 -20 -14 -2 -56 -7 -95 -11 -38 -3 -79 -8 -90
-10 -11 -3 -40 -7 -65 -9 -63 -7 -173 -23 -210 -30 -10 -2 -40 -7 -67 -11 -26
-5 -50 -9 -53 -9 -3 -1 -25 -5 -50 -9 -25 -5 -53 -10 -62 -12 -30 -7 -51 -11
-93 -19 -22 -5 -44 -9 -50 -10 -5 -2 -27 -6 -49 -9 -21 -3 -41 -8 -45 -10 -3
-2 -24 -7 -46 -10 -22 -4 -47 -8 -55 -11 -8 -2 -26 -6 -40 -9 -14 -3 -34 -7
-45 -9 -27 -6 -94 -18 -100 -18 -2 0 -19 -5 -37 -10 -18 -5 -46 -12 -63 -14
-16 -3 -50 -10 -75 -15 -62 -13 -99 -20 -140 -25 -19 -3 -49 -7 -67 -10 -92
-16 -463 -28 -463 -15 0 3 -21 5 -48 6 -51 1 -111 10 -182 26 -25 5 -54 11
-64 14 -139 28 -270 108 -341 208 -39 55 -62 76 -119 106 -68 35 -76 36 -106
12 -20 -16 -21 -21 -11 -41 7 -12 20 -30 29 -40 27 -29 52 -60 106 -135 28
-39 54 -72 59 -74 4 -2 7 -10 7 -18 0 -8 5 -14 10 -14 6 0 10 -5 10 -10 0 -6
18 -37 39 -70 21 -32 44 -75 51 -95 13 -40 6 -125 -11 -125 -6 0 -8 -4 -5 -9
8 -13 -74 -85 -138 -121 -31 -18 -59 -36 -62 -41 -3 -5 -14 -9 -25 -9 -10 0
-19 -3 -19 -7 0 -6 -78 -44 -100 -49 -3 0 -18 -7 -35 -14 -37 -16 -30 -14
-145 -45 -52 -14 -117 -28 -145 -31 -27 -3 -56 -7 -63 -9 -36 -12 -327 -3
-392 12 -28 7 -34 7 -105 17 -27 3 -104 19 -170 36 -66 17 -127 32 -135 34
-91 23 -450 163 -462 180 -4 6 -8 8 -8 4 0 -14 -514 250 -720 370 -52 30 -105
60 -117 66 -13 6 -23 14 -23 19 0 4 -5 7 -10 7 -6 0 -53 27 -106 60 -52 33
-97 60 -100 60 -3 0 -10 4 -17 10 -16 13 -404 272 -430 287 -11 6 -22 15 -26
20 -3 5 -23 19 -44 32 -21 13 -43 28 -50 34 -7 7 -35 28 -62 46 -28 19 -52 38
-55 41 -3 3 -27 22 -55 41 -27 18 -52 36 -55 40 -3 3 -27 21 -55 40 -27 18
-52 36 -55 39 -3 3 -25 21 -50 40 -25 19 -47 38 -48 42 -2 4 -7 8 -11 8 -20 0
-281 256 -309 303 -9 15 -19 27 -23 27 -11 0 -109 147 -135 204 -33 73 -36 88
-37 176 0 88 4 120 15 120 4 0 7 3 6 8 -6 17 46 104 83 136 21 20 36 36 32 36
-17 0 103 74 165 101 72 33 232 82 240 74 2 -2 12 0 21 5 46 24 314 27 469 6
34 -5 109 -17 127 -20 6 -1 16 -5 23 -9 6 -5 12 -6 12 -4 0 3 37 -4 83 -14
105 -25 104 -25 157 -40 25 -6 52 -13 60 -15 8 -1 24 -5 35 -7 38 -10 260 -89
300 -108 22 -10 68 -29 103 -44 34 -14 91 -38 125 -54 60 -27 110 -50 200 -90
116 -52 278 -119 287 -118 3 0 25 -10 49 -22 24 -13 51 -24 60 -26 9 -2 41
-12 71 -24 64 -23 342 -110 373 -115 12 -3 22 -5 22 -6 0 -2 14 -5 100 -25 39
-9 75 -18 80 -19 20 -6 26 -8 87 -22 35 -9 83 -19 108 -24 25 -5 56 -12 70
-15 13 -2 42 -7 65 -10 22 -3 48 -8 57 -11 24 -7 89 -18 168 -29 34 -5 56 -9
110 -19 14 -2 47 -7 73 -11 27 -4 59 -8 70 -11 12 -2 34 -5 50 -6 15 -1 27 -5
27 -8 0 -3 15 -5 33 -5 29 -1 91 -8 172 -20 33 -5 115 -15 155 -20 14 -1 68
-8 120 -14 52 -6 115 -13 140 -15 25 -3 45 -5 45 -6 0 -1 25 -3 55 -5 30 -2
80 -6 110 -9 92 -10 202 -18 260 -21 30 -1 55 -4 55 -5 0 -1 34 -3 75 -5 41
-2 138 -6 215 -10 77 -3 201 -8 275 -11 178 -6 963 -6 1210 0 264 8 670 24
728 29 18 2 32 -2 32 -7 0 -7 3 -8 8 -1 7 10 100 17 259 19 46 0 83 3 83 6 0
3 33 6 73 6 39 1 128 4 197 8 69 3 184 8 255 10 138 5 344 14 485 21 47 2 135
7 195 10 163 8 280 15 370 20 229 13 278 16 370 21 55 3 118 7 140 9 22 1 94
6 160 10 66 4 149 9 185 11 36 3 99 7 140 9 41 2 75 4 75 5 0 1 23 3 50 5 28
2 91 6 140 9 50 4 132 9 184 11 51 3 108 8 125 11 136 23 270 70 314 109 29
26 86 129 79 143 -3 4 -1 16 3 27 4 11 3 30 -1 43 -5 13 -5 21 -1 18 12 -7
-10 71 -32 117 -34 70 -145 160 -281 227 -16 8 -33 19 -37 25 -4 5 -8 6 -8 1
0 -5 -6 -4 -12 2 -7 5 -76 42 -153 82 -77 40 -183 95 -235 123 -248 133 -452
220 -635 273 -179 52 -301 81 -425 99 -25 4 -56 9 -70 11 -25 5 -111 13 -185
19 -22 2 -40 4 -40 5 0 1 -251 10 -387 13 -43 1 -78 4 -78 7 0 3 -26 5 -58 6
-31 1 -88 4 -127 8 -38 4 -88 9 -110 11 -78 7 -125 14 -142 19 -10 3 -43 8
-73 11 -74 9 -88 11 -151 24 -30 5 -72 13 -94 17 -58 9 -77 12 -105 18 -43 10
-74 15 -109 21 -19 3 -37 8 -40 10 -4 2 -27 6 -51 10 -25 4 -50 11 -56 16 -6
5 -13 6 -16 4 -3 -3 -39 3 -79 14 -41 11 -85 22 -99 25 -14 3 -70 16 -125 30
-55 13 -103 22 -107 20 -5 -3 -8 0 -8 6 0 6 -6 10 -12 8 -12 -2 -106 18 -198
42 -37 10 -278 65 -320 74 -48 10 -72 15 -91 21 -10 4 -31 8 -47 10 -15 2 -28
4 -29 6 -5 3 -55 14 -103 23 -8 1 -33 7 -55 13 -40 11 -160 39 -206 49 -25 5
-98 21 -138 30 -13 3 -51 12 -85 20 -34 8 -72 17 -86 20 -14 3 -61 14 -105 25
-44 11 -91 22 -105 25 -14 3 -47 11 -75 19 -27 8 -61 16 -75 19 -31 7 -84 21
-127 34 -18 6 -33 8 -33 4 0 -3 -5 -1 -11 5 -6 6 -18 9 -25 6 -8 -3 -14 1 -14
8 0 7 -3 10 -6 7 -3 -3 -40 5 -82 18 -42 14 -85 27 -94 29 -10 2 -64 20 -120
40 -57 21 -112 39 -123 42 -11 3 -39 14 -62 24 -24 10 -47 19 -52 19 -5 0 -33
11 -64 24 -30 14 -58 22 -61 19 -3 -4 -6 -1 -6 5 0 7 -7 12 -15 12 -9 0 -35
10 -58 21 -23 12 -43 21 -44 21 -3 -1 -65 24 -131 54 -29 13 -57 24 -62 24 -6
0 -10 5 -10 10 0 6 -5 10 -11 10 -6 0 -33 11 -61 25 -27 14 -56 25 -64 25 -8
0 -14 5 -14 12 0 6 -3 8 -7 5 -3 -4 -11 -3 -17 2 -6 5 -56 32 -111 61 -55 29
-107 58 -116 66 -9 8 -19 11 -22 7 -4 -3 -7 -1 -7 5 0 7 -6 12 -14 12 -8 0
-16 3 -18 8 -1 4 -24 18 -50 32 -27 13 -48 28 -48 32 0 5 -4 8 -10 8 -15 0
-354 225 -388 257 -7 7 -26 20 -42 30 -17 9 -30 21 -30 25 0 4 -6 8 -14 8 -8
0 -16 3 -18 8 -1 4 -48 40 -103 81 -55 41 -105 80 -111 85 -6 6 -22 18 -34 26
-12 8 -28 20 -34 25 -6 6 -38 31 -71 55 -33 25 -62 47 -65 50 -26 26 -212 146
-222 142 -5 -1 -8 3 -8 8 0 5 -3 9 -7 8 -5 -1 -24 6 -43 17 -19 11 -37 20 -40
20 -3 1 -12 5 -20 8 -39 16 -141 46 -190 56 -30 6 -66 14 -80 17 -14 3 -41 7
-60 9 -19 2 -35 5 -35 6 0 8 -420 21 -428 13z m6125 -4895 c84 -23 128 -41
128 -51 0 -5 7 -8 15 -8 17 0 103 -82 127 -121 38 -60 48 -127 48 -313 0 -100
3 -224 6 -276 10 -151 10 -414 0 -427 -5 -8 -4 -13 3 -13 7 0 10 -4 6 -10 -3
-5 -8 -58 -10 -117 -3 -59 -7 -117 -9 -128 -3 -11 -5 -25 -5 -31 -1 -7 -19
-21 -41 -32 -37 -18 -56 -20 -198 -16 -148 3 -182 6 -242 18 -14 2 -45 7 -70
10 -25 3 -56 9 -70 12 -14 3 -32 6 -40 6 -8 0 -31 4 -50 9 -19 4 -46 10 -60
13 -14 3 -45 10 -70 15 -25 6 -99 24 -165 41 -66 18 -127 33 -135 35 -46 11
-436 138 -444 145 -5 5 -15 6 -22 3 -8 -3 -14 1 -14 8 0 7 -3 10 -6 6 -4 -3
-23 0 -43 8 -20 7 -70 25 -111 40 -41 15 -82 29 -90 32 -8 3 -19 7 -25 9 -24
6 -253 89 -290 104 -11 5 -54 20 -95 34 -41 13 -102 35 -135 49 -155 63 -245
102 -300 130 -33 17 -66 32 -73 33 -8 1 -22 10 -31 18 -10 9 -23 16 -30 16
-15 0 -99 60 -121 87 -37 43 -50 69 -50 97 0 36 32 88 65 106 14 7 25 16 25
20 0 4 24 17 53 31 28 13 55 28 58 32 3 5 10 9 15 9 11 1 29 6 66 20 15 6 30
10 33 9 3 -1 19 6 35 14 16 8 31 15 32 15 2 -1 10 1 18 4 38 13 192 58 212 61
23 5 129 28 138 30 3 1 23 5 45 10 22 5 43 10 48 11 4 1 8 3 10 4 1 1 13 3 27
5 14 1 70 12 125 24 55 11 114 23 130 26 17 2 40 7 51 9 12 2 39 7 60 10 22 4
62 10 89 16 28 5 70 12 95 15 25 4 59 8 75 10 17 2 41 6 55 9 14 3 45 8 70 10
43 5 80 10 165 20 65 8 194 22 285 30 19 2 87 7 150 11 63 4 116 8 118 10 2 2
68 3 147 3 115 1 159 -3 217 -19z m1268 -63 c118 -6 233 -14 300 -21 25 -3 70
-7 100 -10 30 -3 73 -8 95 -10 22 -3 74 -7 115 -10 41 -3 82 -8 90 -10 8 -2
51 -7 95 -11 44 -3 89 -8 100 -10 11 -3 49 -7 85 -10 36 -3 76 -7 90 -10 14
-2 48 -7 75 -10 28 -2 61 -7 75 -10 14 -2 45 -7 70 -10 25 -3 54 -7 65 -9 11
-2 36 -6 55 -10 19 -3 46 -8 60 -11 14 -3 43 -8 65 -11 21 -2 43 -7 48 -10 5
-3 26 -7 46 -9 46 -5 78 -9 116 -17 17 -4 41 -8 55 -11 32 -5 58 -11 144 -31
38 -9 78 -19 89 -21 114 -22 397 -134 454 -181 30 -24 39 -83 19 -121 -15 -29
-80 -92 -95 -92 -4 0 -18 -9 -31 -20 -13 -11 -31 -20 -42 -20 -10 0 -18 -4
-18 -10 0 -5 -6 -10 -14 -10 -7 0 -49 -16 -92 -36 -43 -19 -88 -39 -99 -43
-11 -5 -38 -16 -60 -26 -63 -27 -498 -169 -555 -180 -8 -2 -16 -4 -17 -5 -2
-2 -6 -3 -10 -5 -5 -1 -15 -4 -23 -7 -46 -18 -56 -21 -65 -23 -5 0 -17 -4 -25
-8 -25 -11 -494 -168 -514 -172 -11 -3 -49 -14 -85 -25 -116 -36 -124 -38
-226 -64 -147 -36 -281 -61 -539 -102 -21 -3 -47 -7 -57 -9 -10 -2 -49 -7 -86
-10 -37 -4 -77 -9 -88 -11 -11 -2 -65 -6 -121 -9 -90 -5 -104 -3 -125 14 -23
19 -24 22 -22 182 1 90 4 225 8 299 4 74 6 185 5 245 -7 401 -2 507 26 573 39
93 139 147 284 152 24 0 46 3 48 5 2 2 9 2 15 0 7 -2 59 -7 117 -9z m-4313
-560 c28 -3 69 -12 90 -20 48 -18 67 -24 73 -23 6 1 73 -35 80 -44 3 -3 25
-15 50 -28 25 -13 121 -69 213 -124 92 -56 176 -106 185 -112 50 -29 127 -81
130 -87 2 -5 8 -8 13 -8 13 0 489 -300 521 -329 46 -40 48 -40 -177 -26 -60 3
-123 8 -140 10 -74 8 -172 18 -187 19 -10 0 -18 4 -18 9 0 4 -4 6 -9 3 -4 -3
-35 -1 -67 4 -32 6 -74 13 -93 16 -31 5 -46 8 -88 18 -10 2 -72 16 -138 30
-67 14 -128 27 -135 30 -8 3 -31 8 -50 11 -40 7 -69 13 -90 18 -23 6 -126 29
-185 42 -18 3 -207 50 -245 60 -51 14 -94 26 -160 45 -41 12 -82 23 -90 25 -8
2 -16 4 -17 5 -2 2 -6 3 -10 4 -17 4 -59 18 -78 25 -11 5 -53 21 -93 36 -81
30 -112 56 -105 86 5 16 73 80 160 149 47 38 217 112 283 124 14 2 36 7 50 10
54 13 88 17 165 22 44 3 82 7 83 9 2 2 9 2 15 0 7 -2 35 -6 64 -9z m7438 -86
c98 -23 128 -32 140 -39 6 -3 15 -6 20 -7 56 -9 186 -100 229 -161 26 -38 28
-45 17 -66 -7 -13 -27 -29 -44 -36 -33 -13 -201 -69 -227 -76 -8 -2 -40 -11
-70 -20 -122 -35 -365 -93 -372 -89 -4 3 -8 1 -8 -4 0 -5 -6 -9 -12 -9 -11 0
-79 -14 -143 -29 -5 -1 -25 -5 -44 -9 -19 -3 -38 -8 -42 -11 -4 -2 -27 -7 -51
-10 -24 -4 -50 -10 -58 -14 -8 -4 -37 -11 -65 -14 -27 -4 -68 -11 -90 -16 -22
-4 -60 -11 -85 -14 -25 -3 -56 -8 -70 -11 -14 -3 -45 -8 -70 -11 -25 -3 -56
-7 -70 -10 -27 -5 -69 -11 -122 -19 -18 -2 -49 -7 -68 -10 -19 -2 -57 -7 -85
-10 -27 -3 -61 -7 -75 -9 -140 -19 -284 -26 -302 -15 -6 4 -1 10 13 14 13 4
32 14 42 23 9 8 17 12 17 7 0 -4 6 -3 13 3 6 5 66 38 132 73 66 34 136 70 155
81 19 10 40 18 47 18 7 0 13 4 13 9 0 5 10 13 21 16 23 7 235 108 424 201 110
53 293 166 307 188 4 6 8 7 8 1 0 -6 3 -5 8 1 14 23 116 66 196 84 92 20 286
21 371 0z"/>
</g>
</svg>
