<svg width="1002" height="621" viewBox="0 0 1002 621" fill="none" xmlns="http://www.w3.org/2000/svg">
<g opacity="0.3">
<mask id="mask0" mask-type="alpha" maskUnits="userSpaceOnUse" x="0" y="0" width="1002" height="621">
<rect width="1002" height="621" fill="#C4C4C4"/>
</mask>
<g mask="url(#mask0)">
<path d="M1066.59 490.333C1053.72 500.896 1039.39 509.888 1025.17 519.141C995.533 538.469 962.483 552.891 928.489 566.09C901.68 576.566 873.649 584.387 845.317 591.546C821.384 597.557 797.035 602.407 772.397 606.072C746.66 609.931 720.731 613.527 694.565 615.815C630.072 621.219 565.149 622.386 500.426 619.306C453.474 616.988 406.842 611.475 361.019 602.825C322.735 595.824 285.108 586.623 248.422 575.291C199.866 560.311 152.982 542.118 111.311 516.906C77.2097 496.374 45.4251 473.153 20.6107 444.729C9.26521 431.704 -0.32165 417.667 5.64922e-05 400.958C0.536235 374.891 29.018 355.912 62.4326 359.055C87.7617 361.429 111.139 368.92 133.852 377.754C167.309 390.779 199.952 405.375 236.39 412.533C256.358 416.444 276.453 419.814 296.764 422.416C354.95 429.871 413.543 430.534 472.201 429.085C533.476 427.584 594.75 425.471 655.982 423.184C673.654 422.52 691.327 422.363 708.978 421.822C717.964 421.543 726.521 420.216 733.792 415.589C741.062 410.962 741.62 403.524 734.736 398.129C730.708 395.288 726.237 392.893 721.438 391.006C702.265 382.398 682.834 373.826 662.201 368.204C644.593 363.437 625.741 361.709 607.79 357.885C580.295 352.036 552.028 353.189 524.146 350.989C511.614 349.985 499.527 346.671 488.801 341.299C465.386 329.949 439.816 321.848 413.136 317.327C409.34 316.663 403.227 314.76 401.555 318.374C399.882 321.988 405.844 323.472 409.361 325.358C428.664 335.834 449.467 344.284 467.268 356.419C479.751 364.886 490.86 373.669 488.716 388.998C487.827 394.798 484.841 400.251 480.136 404.666C475.431 409.08 469.22 412.257 462.293 413.791C439.216 418.19 417.64 413.703 396.643 406.946C370.613 398.604 345.501 388.476 321.578 376.672C316.602 374.21 310.64 372.289 308.174 366.493C319.562 365.986 328.291 370.893 337.792 373.319C368.848 381.246 398.552 392.403 430.165 399.107C437.707 400.526 445.385 401.42 453.113 401.778C468.555 402.843 475.654 388.579 469.156 379.221C463.065 370.491 454.143 364.24 444.256 358.636C420.342 345.017 394.027 334.926 367.732 324.887C323.53 307.986 284.346 285.568 251.167 256.236C231.243 238.637 209.903 222.522 183.952 210.44C159.524 199.038 134.323 198.532 107.965 202.461C103.354 203.141 98.807 204.433 93.8741 203.787C93.8532 202.875 94.1946 201.981 94.8476 201.238C95.5006 200.496 96.4303 199.945 97.4987 199.667C126.795 190.937 156.328 185.245 187.577 193.312C204.734 197.729 216.53 207.698 228.862 217.231C251.124 234.446 273.622 251.382 299.638 264.913C330.377 280.648 363.555 292.978 398.295 301.578C436.428 311.303 475.075 319.631 513.444 328.675C546.344 336.445 579.93 343.359 614.696 343.83C648.711 344.302 680.796 351.128 709.557 366.615C723.09 373.913 736.837 380.984 750.113 388.562C759.679 394.009 766.091 401.132 765.555 411.468C765.577 414.743 764.413 417.95 762.208 420.689C760.003 423.428 756.856 425.577 753.159 426.868C745.309 430.01 736.73 430.726 728.237 431.425C673.375 435.894 618.321 438.408 563.266 441.01C504.715 443.716 446.165 446.737 387.399 444.851C347.343 443.698 307.456 440.038 268.089 433.904C233.152 428.369 198.836 420.739 167.137 407.086C148.05 398.88 129.777 389.33 109.23 383.481C90.078 378.016 70.7756 373.197 49.7359 375.886C20.4177 379.64 7.14195 400.207 20.5893 421.787C30.5622 437.78 45.6824 450.456 61.3388 462.415C95.4486 488.381 132.536 511.627 172.092 531.834C194.869 543.445 219.082 552.524 246.213 554.532C269.033 556.155 289.45 550.202 306.973 538.417C312.57 534.645 314.479 529.268 310.919 523.052C306.094 514.349 300.353 506.001 293.761 498.103C292.11 496.182 290.201 494.174 292.646 492.446C295.091 490.717 297.836 492.079 299.895 493.598C302.436 495.137 304.615 497.035 306.329 499.202C313.922 511.511 328.141 514.759 342.789 516.435C361.148 518.548 379.099 516.278 397.008 511.965C415.972 507.399 435.25 503.75 454.743 501.036C541.213 488.862 629.811 491.006 715.24 507.339C735.679 511.389 755.389 517.814 776.493 519.875C793.651 521.621 809.929 520.835 825.628 514.41C832.706 511.511 837.296 506.832 841.585 501.909C843.283 499.737 845.61 497.939 848.362 496.671C850.636 495.711 853.059 493.354 855.376 495.536C857.306 497.282 855.118 499.726 853.831 501.42C847.676 509.556 840.963 517.413 836.567 526.387C832.963 533.825 834.057 537.648 842.293 541.821C857.306 549.468 873.37 555.876 891.128 557.028C904.232 557.866 916.865 553.938 928.746 549.294C949.486 541.228 968.423 530.56 988.798 521.848C1007.39 513.851 1026.09 506.012 1044.75 498.12C1045.45 497.78 1053.73 492.219 1055.83 491.71C1060.35 490.609 1061.06 489.674 1066.3 489.674C1069.15 490.333 1062.02 490.822 1066.59 490.333ZM563.137 564.536H562.386C562.386 554.287 561.636 543.986 562.537 533.79C564.21 514.584 547.352 504.51 527.385 505.61C484.855 507.967 442.883 513.38 402.241 524.222C392.118 526.911 382.123 530.211 373.888 536.06C367.003 540.948 366.66 545.767 372.837 551.179C375.145 553.297 377.759 555.178 380.622 556.784C390.219 561.846 400.328 566.233 410.841 569.896C446.465 582.729 481.316 597.29 519.921 603.698C532.21 605.74 544.521 608.01 557.261 606.334C561.55 605.775 563.523 604.745 563.33 600.538C562.773 588.543 563.137 576.531 563.137 564.536ZM591.018 563.785H590.075C590.075 576.007 590.075 588.229 590.075 600.45C590.075 604.239 591.362 606.125 596.509 605.688C613.769 604.21 630.864 601.647 647.639 598.023C676.421 591.755 702.822 580.564 730.382 571.834C745.38 567.297 759.826 561.634 773.533 554.916C778.659 552.314 784.257 549.207 784.128 543.445C784 537.963 777.973 536.287 773.126 534.174C752.794 525.322 730.232 522.319 708.055 518.827C687.08 515.527 665.762 513.589 644.55 511.511C633.951 510.357 623.284 509.663 612.594 509.434C599.297 509.224 591.683 514.794 591.147 525.339C590.504 538.067 590.975 550.935 590.975 563.785H591.018ZM435.141 599.211C433.249 597.312 431.192 595.527 428.985 593.868C405.544 579.254 382.595 564.187 358.21 550.533C353.473 548.046 347.932 546.763 342.296 546.849C334.682 546.649 327.095 547.693 319.985 549.921C312.875 552.149 306.387 555.516 300.903 559.822C291.252 567.085 291.895 569.477 303.949 573.632C330.372 582.746 358.038 588.508 385.834 593.833C401.961 597.163 418.506 598.968 435.141 599.211ZM708.141 599.211C711.577 599.359 715.021 599.359 718.457 599.211C737.815 597.357 756.997 594.441 775.871 590.481C797.769 585.61 819.645 580.686 840.641 573.51C850.829 570.018 851.73 568.063 845.724 562.039C833.114 549.364 801.908 545.138 786.423 556.609C778.79 562.06 770.596 566.967 761.931 571.275C744.666 580.04 727.486 589.067 708.141 599.158V599.211Z" fill="#2263A8"/>
<path d="M41.7793 169.479C48.2134 158.27 57.3714 150.675 65.9073 142.871C86.5477 124.386 109.933 108.064 135.525 94.2811C168.766 76.1687 204.257 60.9534 241.409 48.8863C279.81 36.3668 319.395 26.4055 359.776 19.1004C398.632 11.9205 438.042 6.89801 477.735 4.06778C535.17 -0.122505 592.584 -1.53673 650.234 2.02502C682.405 4.0154 714.211 6.82638 745.845 11.3135C784.002 16.7923 821.657 24.3756 858.55 34.0108C897.399 44.2238 935.186 56.9396 971.555 72.0377C1011.11 88.3222 1047.56 109.194 1079.76 134.001C1102.73 151.583 1124.94 169.601 1139.49 192.84C1154.33 216.533 1149.65 238.409 1126.23 253.948C1117.85 259.5 1107.92 261.508 1097.21 262.05C1073.77 263.237 1052.32 257.266 1031.5 249.828C1009.13 241.762 987.297 232.718 965.121 224.32C938.269 214.158 909.766 208.501 880.941 203.613C847.643 198.104 813.988 194.135 780.139 191.723C740.962 188.813 701.643 187.416 662.18 187.532C611.5 187.724 561.057 191.024 510.592 194.115C483.933 195.861 457.403 198.549 430.809 200.836C426.835 201.302 422.955 202.194 419.27 203.49C413.201 205.393 409.34 208.868 408.718 213.966C408.096 219.064 411.935 223.028 417.104 225.681C422.959 228.667 429.264 231.094 435.184 234.044C437.328 235.11 440.138 236.524 439.473 239.09C438.658 241.954 435.398 241.482 432.825 241.395C419.785 240.924 407.324 238.776 396.622 232.299C383.754 224.529 379.464 211.504 385.898 201.273C389.716 195.337 396.214 192.857 403.85 191.461C427.163 187.236 450.905 185.42 474.625 183.796C519.664 180.688 564.853 178.244 609.978 175.573C648.711 173.285 687.488 171.592 726.35 172.709C769.587 173.949 812.589 176.446 855.311 182.818C886.128 187.194 916.481 193.51 946.097 201.709C964.177 207.022 981.592 213.728 998.106 221.736C1020.13 232.211 1043.25 240.574 1068.43 244.66C1081.13 246.72 1093.8 247.139 1106.39 243.682C1128.25 237.676 1137.96 220.444 1129.28 203.525C1120.59 186.607 1105.23 173.25 1089.17 160.767C1053.48 132.979 1014.18 108.432 971.962 87.5592C949.507 76.4549 925.894 67.6204 898.785 66.7474C877.831 66.0665 859.3 71.5663 841.242 79.3532C798.323 97.6169 752.344 110.653 704.774 118.043C650.34 126.786 594.739 129.72 539.374 126.773C483.902 123.978 429.136 115.171 376.526 100.584C342.597 91.3304 310.19 79.1262 277.119 68.0918C259.51 62.2254 242.203 63.5349 224.938 69.4711C206.193 75.9137 190.129 86.1275 172.349 93.9144C142.323 106.939 116.008 123.945 89.349 140.706C76.9097 148.528 64.7277 156.612 52.46 164.608C49.4259 166.9 45.7645 168.57 41.7793 169.479ZM604.595 17.8084C601.932 17.9746 599.257 17.9746 596.595 17.8084C589.56 16.9354 587.501 18.9782 587.63 24.897C588.188 52.3783 588.345 79.8537 588.102 107.323C588.102 112.841 590.675 114.063 596.681 113.591C607.854 112.701 619.028 111.845 630.245 111.287C655.06 110.099 679.574 106.433 704.152 104.023C720.345 102.435 736.108 97.5111 751.829 93.5478C759.893 91.4701 768.043 89.0083 774.67 84.3117C780.568 80.1214 781.104 75.6867 776.386 70.6409C772.602 66.9579 767.987 63.8997 762.788 61.6318C747.389 54.1591 730.618 49.0784 714.382 42.8977C679.445 29.4364 643.414 19.4496 604.595 17.8084ZM563.673 65.6126H564.06C564.06 51.8719 563.888 38.1487 564.06 24.4256C564.06 19.3798 562.151 17.6164 555.717 17.7386C534.609 18.1759 513.645 20.6968 493.284 25.2462C465.403 31.3919 439.666 42.2343 413.243 51.5402C401.808 55.2462 390.969 60.0714 380.965 65.9094C368.912 73.382 369.684 80.7849 382.617 86.9655C395.549 93.1462 409.126 96.3937 423.109 98.9428C466.502 106.635 510.58 111.498 554.923 113.487C561.722 113.836 563.888 112.282 563.759 106.869C563.48 93.0764 563.673 79.3357 563.673 65.6126ZM712.173 22.6971C739.904 38.0789 765.255 54.1242 793.865 65.438C811.023 72.2297 829.339 69.4886 845.746 61.0207C849.478 59.1002 853.338 56.4987 853.016 53.0243C852.695 49.5498 847.526 48.6768 843.88 47.4721C816.08 38.5132 787.376 31.538 758.092 26.6255C743.679 24.0589 729.202 21.4924 712.173 22.6971ZM438.251 22.4003C433.318 22.4003 430.894 22.2257 428.535 22.4003C385.491 25.9795 344.42 35.687 304.442 48.7641C296.55 51.3307 296.164 55.1892 303.563 59.624C310.698 64.1004 319.076 67.0789 327.959 68.2968C336.842 69.5147 345.957 68.9347 354.5 66.6078C372.858 61.8238 387.507 51.0339 403.528 42.6184C414.788 36.6647 426.412 30.9903 438.251 22.3653V22.4003Z" fill="#2263A8"/>
<path d="M1053.29 417.283C1049.47 422.398 1043.53 423.725 1037.83 425.174C1015.11 430.936 992.229 433.904 968.294 429.976C947.834 426.606 933.786 415.659 919.888 404.555C888.897 379.762 855.954 357.204 816.792 341.281C786.058 328.78 753.759 319.824 720.687 312.473C688.517 305.332 656.346 297.894 624.347 290.457C591.576 282.844 558.397 277.467 524.189 276.733C506.654 276.471 489.326 273.601 473.059 268.266C460.62 264.11 392.548 236.072 388.602 224.985C388.066 223.501 429.295 234.334 431.547 233.13C433.199 232.239 451.011 241.151 452.727 241.814C467.097 246.947 480.758 253.53 496.586 255.625C503.964 256.603 511.235 258.331 518.655 258.768C537.593 259.868 554.912 259.449 574 258.75C589.513 259.169 601.441 263.936 614.417 266.362C629.43 269.173 643.885 272.927 656.861 279.265C677.386 289.322 700.034 293.966 722.789 298.628C724.067 298.958 725.382 299.186 726.714 299.309C729.009 299.413 731.947 300.269 733.148 298.086C734.542 295.642 731.432 294.594 729.652 293.634C719.894 287.942 709.771 282.635 700.227 276.716C685.879 267.829 671.359 259.256 660.314 247.122C646.395 231.827 656.389 213.024 675.605 207.175C696.516 200.819 717.513 203.683 737.566 209.829C764.614 218.015 790.559 228.44 814.99 240.941C819.006 243.094 822.781 245.531 826.271 248.222C827.708 249.287 829.596 251.103 828.223 252.796C826.851 254.49 824.277 253.652 822.325 253.041C809.457 248.92 796.589 244.73 783.592 240.557C760.257 232.997 736.794 225.787 712.366 220.845C706.096 219.641 699.648 219.165 693.214 219.431C679.573 219.85 672.581 228.982 677.193 239.545C680.989 248.274 688.967 254.019 697.546 259.169C717.577 271.216 739.539 280.47 762.123 289.007C814.99 309.034 863.654 333.948 902.795 370.142C923.856 389.644 948.241 406.196 978.224 416.392C994.524 421.927 1011.45 422.52 1028.65 420.617C1036.9 419.727 1045.08 418.348 1053.29 417.283Z" fill="#2263A8"/>
</g>
</g>
</svg>
