<svg xmlns="http://www.w3.org/2000/svg" viewBox="0 0 54 63"><defs><style>.cls-1{fill:#939393;}</style></defs><title>Ресурс 1</title><g id="Слой_2" data-name="Слой 2"><g id="Слой_1-2" data-name="Слой 1"><path class="cls-1" d="M49.5,63H15.75a4.51,4.51,0,0,1-4.5-4.5V45h4.5V58.5H49.5V9H29.25V4.5H49.5A4.51,4.51,0,0,1,54,9V58.5A4.51,4.51,0,0,1,49.5,63Z"/><path class="cls-1" d="M29.25,18H45v4.5H29.25Z"/><path class="cls-1" d="M27,29.25H45v4.5H27Z"/><path class="cls-1" d="M24.75,40.5H45V45H24.75Z"/><path class="cls-1" d="M11.25,38.25A11.27,11.27,0,0,1,0,27V2.25H4.5V27A6.75,6.75,0,0,0,18,27V6.75a2.25,2.25,0,0,0-4.5,0v22.5H9V6.75a6.75,6.75,0,0,1,13.5,0V27A11.27,11.27,0,0,1,11.25,38.25Z"/></g></g></svg>
