<?xml version="1.0" encoding="utf-8"?>
<!-- Generator: Adobe Illustrator 24.0.1, SVG Export Plug-In . SVG Version: 6.00 Build 0)  -->
<svg version="1.1" id="Слой_1" xmlns="http://www.w3.org/2000/svg" xmlns:xlink="http://www.w3.org/1999/xlink" x="0px" y="0px"
	 viewBox="0 0 11 16" style="enable-background:new 0 0 11 16;" xml:space="preserve">
<style type="text/css">
	.st0{fill:#0DA2E0;}
</style>
<path class="st0" d="M5.7,0c-2.8,0-5,2.2-5,5c0,4.8,5,11,5,11s5-6.2,5-11C10.7,2.2,8.5,0,5.7,0z M5.7,7.8C5,7.8,4.3,7.5,3.8,7
	S3,5.8,3,5.1c0-0.7,0.3-1.4,0.8-1.9S5,2.4,5.7,2.4s1.4,0.3,1.9,0.8s0.8,1.2,0.8,1.9c0,0.7-0.3,1.4-0.8,1.9S6.5,7.8,5.7,7.8z"/>
</svg>
