<svg xmlns="http://www.w3.org/2000/svg" viewBox="0 0 76.67 70"><defs><style>.cls-1{fill:#939393;}</style></defs><title>Ресурс 1</title><g id="Слой_2" data-name="Слой 2"><g id="Слой_1-2" data-name="Слой 1"><path class="cls-1" d="M10,23.33a3.34,3.34,0,1,0,6.67,0V16.67h6.66a3.34,3.34,0,1,0,0-6.67H16.67V3.33a3.34,3.34,0,0,0-6.67,0V10H3.33a3.34,3.34,0,0,0,0,6.67H10Z"/><path class="cls-1" d="M43.33,53.33a10,10,0,1,0-10-10A10,10,0,0,0,43.33,53.33Z"/><path class="cls-1" d="M70,16.67H59.43l-4.13-4.5A6.65,6.65,0,0,0,50.4,10H29.07a6.62,6.62,0,0,1-5.74,10H20v3.33a6.62,6.62,0,0,1-10,5.74V63.33A6.69,6.69,0,0,0,16.67,70H70a6.69,6.69,0,0,0,6.67-6.67v-40A6.69,6.69,0,0,0,70,16.67ZM43.33,60A16.67,16.67,0,1,1,60,43.33,16.67,16.67,0,0,1,43.33,60Z"/></g></g></svg>
